<svg width="24" height="24" viewBox="0 0 24 24" fill="none" xmlns="http://www.w3.org/2000/svg">
<rect width="24" height="24" rx="4" fill="#E12D2C"/>
<path fill-rule="evenodd" clip-rule="evenodd" d="M14.1 7.48684V7.62304C14.8794 7.69431 15.6556 7.7968 16.4268 7.93024C16.485 7.94033 16.5407 7.96178 16.5906 7.99338C16.6406 8.02498 16.6838 8.06611 16.7178 8.11442C16.7519 8.16272 16.7761 8.21726 16.789 8.27491C16.802 8.33257 16.8035 8.39221 16.7934 8.45044C16.7833 8.50867 16.7619 8.56434 16.7303 8.61428C16.6987 8.66421 16.6575 8.70744 16.6092 8.74148C16.5609 8.77552 16.5064 8.79972 16.4487 8.81268C16.3911 8.82565 16.3314 8.82713 16.2732 8.81704L16.1478 8.79604L15.5448 16.638C15.51 17.0902 15.3059 17.5126 14.9732 17.8207C14.6405 18.1288 14.2037 18.3 13.7502 18.3H9.0504C8.59692 18.3 8.16016 18.1288 7.82744 17.8207C7.49472 17.5126 7.29057 17.0902 7.2558 16.638L6.6522 8.79604L6.5268 8.81704C6.46858 8.82713 6.40893 8.82565 6.35128 8.81268C6.29362 8.79972 6.23908 8.77552 6.19078 8.74148C6.09322 8.67273 6.02697 8.56804 6.0066 8.45044C5.98624 8.33285 6.01342 8.21197 6.08217 8.11442C6.15092 8.01686 6.25561 7.95061 6.3732 7.93024C7.14436 7.79664 7.92059 7.69415 8.7 7.62304V7.48684C8.7 6.54844 9.4278 5.74684 10.3896 5.71624C11.0632 5.69468 11.7374 5.69468 12.411 5.71624C13.3728 5.74684 14.1 6.54844 14.1 7.48684ZM10.4184 6.61564C11.0728 6.59471 11.7278 6.59471 12.3822 6.61564C12.834 6.63004 13.2 7.01044 13.2 7.48684V7.55464C12.0011 7.48183 10.7989 7.48183 9.6 7.55464V7.48684C9.6 7.01044 9.9654 6.63004 10.4184 6.61564ZM10.2054 10.1826C10.2031 10.1235 10.1892 10.0655 10.1645 10.0118C10.1398 9.95804 10.1047 9.90971 10.0613 9.86954C10.0179 9.82937 9.96701 9.79814 9.91154 9.77764C9.85607 9.75713 9.7971 9.74776 9.738 9.75004C9.67891 9.75233 9.62084 9.76623 9.56712 9.79096C9.5134 9.81568 9.46507 9.85075 9.4249 9.89415C9.38473 9.93755 9.3535 9.98844 9.333 10.0439C9.3125 10.0994 9.30312 10.1583 9.3054 10.2174L9.5136 15.6174C9.51822 15.7367 9.57002 15.8493 9.65762 15.9303C9.701 15.9705 9.75185 16.0017 9.80729 16.0222C9.86272 16.0427 9.92165 16.052 9.9807 16.0497C10.0398 16.0475 10.0978 16.0336 10.1515 16.0089C10.2052 15.9841 10.2535 15.9491 10.2936 15.9057C10.3337 15.8624 10.3649 15.8115 10.3854 15.7561C10.4059 15.7006 10.4153 15.6417 10.413 15.5826L10.2054 10.1826ZM13.4934 10.2174C13.4978 10.1572 13.49 10.0967 13.4706 10.0395C13.4511 9.98238 13.4203 9.92972 13.38 9.88471C13.3398 9.83969 13.2909 9.80324 13.2363 9.77751C13.1816 9.75179 13.1224 9.73734 13.062 9.735C13.0017 9.73266 12.9415 9.7425 12.885 9.76392C12.8285 9.78533 12.777 9.8179 12.7333 9.85967C12.6897 9.90144 12.655 9.95156 12.6311 10.007C12.6073 10.0625 12.5949 10.1223 12.5946 10.1826L12.3864 15.5826C12.3818 15.702 12.4248 15.8183 12.5059 15.9059C12.587 15.9936 12.6997 16.0454 12.819 16.05C12.9384 16.0547 13.0546 16.0117 13.1423 15.9305C13.23 15.8494 13.2818 15.7368 13.2864 15.6174L13.4934 10.2174Z" fill="#F8FAFC"/>
</svg>
