<svg width="24" height="24" viewBox="0 0 24 24" fill="none" xmlns="http://www.w3.org/2000/svg">
<rect width="24" height="24" rx="4" fill="#7843E9"/>
<g clip-path="url(#clip0_153_247)">
<path d="M15.8924 13.7653C17.4018 11.2942 17.0954 8.01793 14.9601 5.87938C12.4564 3.37572 8.38142 3.37572 5.87775 5.87938C3.37408 8.38305 3.37408 12.458 5.87775 14.9584C8.01304 17.0937 11.2893 17.4002 13.7637 15.8908L17.4311 19.5583C18.0179 20.1451 18.9731 20.1451 19.5599 19.5583C20.1467 18.9715 20.1467 18.0163 19.5599 17.4295L15.8924 13.7653ZM13.6333 13.6349C11.8598 15.4083 8.978 15.4083 7.20782 13.6349C5.43439 11.8615 5.43439 8.97963 7.20782 7.20946C8.98126 5.43603 11.8631 5.43603 13.6333 7.20946C15.4034 8.97963 15.4034 11.8615 13.6333 13.6349ZM11.172 9.60554H13.1084V11.0823H11.172V13.0187H9.69519V11.0823H7.76202V9.60554H9.69845V7.66911H11.1752V9.60554H11.172Z" fill="#F8FAFC"/>
</g>
<defs>
<clipPath id="clip0_153_247">
<rect width="16" height="16" fill="white" transform="translate(4 4)"/>
</clipPath>
</defs>
</svg>
